<?xml version="1.0" encoding="utf-8"?>
<!-- Generator: Adobe Illustrator 16.0.0, SVG Export Plug-In . SVG Version: 6.00 Build 0)  -->
<!DOCTYPE svg PUBLIC "-//W3C//DTD SVG 1.0//EN" "http://www.w3.org/TR/2001/REC-SVG-20010904/DTD/svg10.dtd">
<svg version="1.0" id="Camada_1" xmlns="http://www.w3.org/2000/svg" xmlns:xlink="http://www.w3.org/1999/xlink" x="0px" y="0px"
	 width="25px" height="25px" viewBox="0 0 25 25" enable-background="new 0 0 25 25" xml:space="preserve">
<g>
	<path fill="#FFFFFF" d="M0.894,8.47h4.979V24.5H0.894V8.47z M3.385,0.5c1.592,0,2.883,1.296,2.883,2.889
		c0,1.595-1.291,2.89-2.883,2.89c-1.598,0-2.885-1.295-2.885-2.89C0.5,1.796,1.787,0.5,3.385,0.5"/>
	<path fill="#FFFFFF" d="M8.993,8.47h4.769v2.19h0.067c0.663-1.261,2.287-2.59,4.707-2.59c5.033,0,5.964,3.319,5.964,7.636V24.5
		h-4.969v-7.793c0-1.861-0.036-4.254-2.587-4.254c-2.588,0-2.982,2.025-2.982,4.115V24.5H8.993V8.47z"/>
</g>
</svg>
