<?xml version="1.0" encoding="utf-8"?>
<!-- Generator: Adobe Illustrator 16.0.0, SVG Export Plug-In . SVG Version: 6.00 Build 0)  -->
<!DOCTYPE svg PUBLIC "-//W3C//DTD SVG 1.0//EN" "http://www.w3.org/TR/2001/REC-SVG-20010904/DTD/svg10.dtd">
<svg version="1.0" id="Camada_1" xmlns="http://www.w3.org/2000/svg" xmlns:xlink="http://www.w3.org/1999/xlink" x="0px" y="0px"
	 width="25px" height="25px" viewBox="0 0 25 25" enable-background="new 0 0 25 25" xml:space="preserve">
<g>
	<path fill="#FFFFFF" d="M12.013,2.023c0.192,0.12,0.405,0.29,0.643,0.52c0.229,0.238,0.454,0.531,0.673,0.876
		c0.21,0.326,0.396,0.709,0.561,1.156c0.134,0.443,0.201,0.964,0.201,1.557c-0.018,1.086-0.26,1.956-0.722,2.609
		c-0.225,0.315-0.466,0.608-0.722,0.874c-0.28,0.267-0.577,0.541-0.893,0.816c-0.183,0.187-0.349,0.399-0.504,0.637
		c-0.179,0.248-0.271,0.534-0.271,0.861c0,0.317,0.093,0.577,0.277,0.786c0.159,0.198,0.312,0.371,0.461,0.52l1.031,0.845
		c0.64,0.525,1.203,1.102,1.685,1.733c0.454,0.644,0.692,1.483,0.712,2.52c0,1.474-0.65,2.777-1.951,3.916
		c-1.348,1.176-3.295,1.784-5.838,1.823c-2.129-0.019-3.72-0.474-4.769-1.36C1.53,21.882,1,20.893,1,19.736
		c0-0.563,0.172-1.188,0.518-1.88c0.333-0.69,0.938-1.297,1.816-1.819c0.983-0.562,2.019-0.938,3.102-1.126
		c1.073-0.157,1.964-0.246,2.674-0.267c-0.22-0.286-0.414-0.596-0.586-0.922c-0.2-0.318-0.3-0.703-0.3-1.148
		c0-0.268,0.037-0.494,0.113-0.671c0.068-0.19,0.129-0.361,0.187-0.523c-0.347,0.04-0.672,0.06-0.976,0.06
		c-1.62-0.02-2.852-0.529-3.701-1.528c-0.89-0.93-1.334-2.01-1.334-3.246c0-1.494,0.63-2.847,1.89-4.063
		c0.862-0.711,1.76-1.174,2.692-1.395c0.921-0.187,1.785-0.28,2.592-0.28h6.078l-1.877,1.095H12.013z M13.188,19.52
		c0-0.771-0.252-1.442-0.755-2.016c-0.532-0.541-1.364-1.209-2.497-2.001c-0.193-0.021-0.422-0.029-0.683-0.029
		c-0.155-0.021-0.552,0-1.19,0.057c-0.63,0.091-1.273,0.233-1.932,0.432c-0.154,0.061-0.372,0.149-0.653,0.268
		c-0.28,0.129-0.565,0.311-0.855,0.548c-0.282,0.247-0.518,0.555-0.712,0.92c-0.223,0.388-0.332,0.853-0.332,1.396
		c0,1.068,0.481,1.947,1.449,2.64c0.92,0.69,2.178,1.047,3.775,1.068c1.434-0.021,2.526-0.338,3.279-0.951
		C12.817,21.245,13.188,20.471,13.188,19.52z M8.949,10.612c0.802-0.031,1.467-0.32,2.001-0.862
		c0.258-0.388,0.422-0.783,0.497-1.188c0.044-0.408,0.065-0.747,0.065-1.025c0-1.199-0.307-2.409-0.919-3.626
		c-0.288-0.583-0.666-1.059-1.136-1.426c-0.479-0.345-1.029-0.529-1.652-0.55C6.982,1.954,6.297,2.287,5.75,2.932
		C5.29,3.604,5.07,4.358,5.09,5.19c0,1.098,0.321,2.242,0.965,3.43c0.313,0.553,0.712,1.026,1.205,1.411
		C7.752,10.419,8.316,10.612,8.949,10.612z"/>
	<polygon fill="#FFFFFF" points="24,4.249 20.81,4.249 20.81,1.058 19.265,1.058 19.265,4.249 16.076,4.249 16.076,5.794 
		19.265,5.794 19.265,8.982 20.81,8.982 20.81,5.794 24,5.794 	"/>
</g>
<g>
	<path fill="#FFFFFF" d="M-36.46,5.111c0.174-0.064,0.357-0.104,0.553-0.104h18.812c0.196,0,0.382,0.04,0.555,0.104l-8.43,7.94
		c-0.857,0.809-2.201,0.809-3.061,0L-36.46,5.111z M-15.735,19.222c0.146-0.242,0.234-0.52,0.234-0.822V6.601
		c0-0.215-0.045-0.417-0.12-0.606l-7.889,7.432L-15.735,19.222z M-24.222,14.088c-0.655,0.561-1.466,0.845-2.277,0.845
		c-0.816,0-1.625-0.284-2.281-0.845l-7.752,5.778c0.193,0.08,0.404,0.127,0.625,0.127h18.812c0.222,0,0.433-0.047,0.625-0.127
		L-24.222,14.088z M-37.381,5.995c-0.077,0.188-0.12,0.391-0.12,0.606v11.798c0,0.303,0.088,0.58,0.234,0.822l7.774-5.795
		L-37.381,5.995z M-37.381,5.995"/>
</g>
<path fill="#FFFFFF" d="M51.634,13.431l0.486-3.768h-3.73V7.258c0-1.091,0.305-1.833,1.869-1.833l1.99-0.001V2.054
	c-0.342-0.045-1.525-0.146-2.904-0.146c-2.875,0-4.842,1.754-4.842,4.978v2.778H41.25v3.768h3.254v9.662h3.887v-9.662H51.634z"/>
</svg>
