<?xml version="1.0" encoding="utf-8"?>
<!-- Generator: Adobe Illustrator 16.0.0, SVG Export Plug-In . SVG Version: 6.00 Build 0)  -->
<!DOCTYPE svg PUBLIC "-//W3C//DTD SVG 1.0//EN" "http://www.w3.org/TR/2001/REC-SVG-20010904/DTD/svg10.dtd">
<svg version="1.0" id="Camada_1" xmlns="http://www.w3.org/2000/svg" xmlns:xlink="http://www.w3.org/1999/xlink" x="0px" y="0px"
	 width="120px" height="120px" viewBox="0 0 120 120" enable-background="new 0 0 120 120" xml:space="preserve">
<g>
	<circle fill="#93AF41" cx="60.01" cy="60" r="57.5"/>
	<linearGradient id="SVGID_1_" gradientUnits="userSpaceOnUse" x1="60.0093" y1="9.5498" x2="60.0093" y2="90.967">
		<stop  offset="0" style="stop-color:#FFFFFF"/>
		<stop  offset="1" style="stop-color:#EFEEED"/>
	</linearGradient>
	<circle fill="url(#SVGID_1_)" cx="60.01" cy="60" r="50"/>
	<path fill="#93AF41" d="M77.075,54.947c-7.73-16.634-11.749-22.949-24.38-22.691c-4.493,0.1-3.411-3.251-6.841-1.982
		c-3.434,1.271-0.488,3.131-3.996,6.011c-9.837,8.068-8.93,15.546-4.363,33.345c1.922,7.502-4.637,7.875-2.043,15.133
		c1.898,5.307,15.858,7.523,30.592,2.059c14.731-5.471,24.03-16.32,22.136-21.615C85.587,57.93,80.333,61.949,77.075,54.947
		L77.075,54.947z M64.439,82.342c-13.152,4.881-23.968,2.008-24.424,0.734c-0.79-2.201,4.247-9.539,19.291-15.121
		c15.041-5.58,23.436-3.514,24.313-1.055C84.14,68.348,77.605,77.465,64.439,82.342L64.439,82.342z M60.217,70.498
		c-6.88,2.553-11.663,5.479-14.755,8.104c2.178,1.977,6.258,2.459,10.327,0.951c5.176-1.924,8.351-6.326,7.098-9.846
		c-0.018-0.045-0.041-0.076-0.054-0.117C61.985,69.857,61.111,70.168,60.217,70.498L60.217,70.498z M60.217,70.498"/>
</g>
<g>
	<circle fill="#93AF41" cx="-189.502" cy="58.911" r="57.5"/>
	<linearGradient id="SVGID_2_" gradientUnits="userSpaceOnUse" x1="-189.502" y1="8.4609" x2="-189.502" y2="89.8773">
		<stop  offset="0" style="stop-color:#FFFFFF"/>
		<stop  offset="1" style="stop-color:#EFEEED"/>
	</linearGradient>
	<circle fill="url(#SVGID_2_)" cx="-189.502" cy="58.911" r="50"/>
	<path id="heart_5_" fill="#93AF41" d="M-189.83,85.895l-0.995-0.806C-212.578,67.367-218.468,61.131-218.468,51
		c0-8.33,6.776-15.105,15.104-15.105c6.962,0,10.897,3.952,13.534,6.926c2.635-2.974,6.571-6.926,13.533-6.926
		c8.333,0,15.109,6.775,15.109,15.105c0,10.131-5.896,16.367-27.65,34.089L-189.83,85.895z"/>
</g>
<g>
	<circle fill="#93AF41" cx="310.498" cy="690.847" r="57.5"/>
	<linearGradient id="SVGID_3_" gradientUnits="userSpaceOnUse" x1="310.498" y1="640.3965" x2="310.498" y2="721.8125">
		<stop  offset="0" style="stop-color:#FFFFFF"/>
		<stop  offset="1" style="stop-color:#EFEEED"/>
	</linearGradient>
	<circle fill="url(#SVGID_3_)" cx="310.498" cy="690.847" r="50"/>
	<g>
		<path fill="#93AF41" d="M321.327,719.533c-2.729,1.067-4.88,1.875-6.501,2.439c-1.609,0.568-3.492,0.857-5.625,0.857
			c-3.295,0-5.866-0.813-7.681-2.428c-1.826-1.589-2.72-3.637-2.72-6.103c0-0.962,0.065-1.937,0.195-2.942
			c0.128-1.006,0.354-2.117,0.652-3.383l3.408-12.014c0.298-1.157,0.559-2.246,0.755-3.249c0.203-1.053,0.307-1.98,0.307-2.837
			c0-1.521-0.326-2.598-0.96-3.207c-0.633-0.605-1.824-0.894-3.612-0.894c-0.876,0-1.788,0.134-2.71,0.397
			c-0.912,0.282-1.694,0.546-2.351,0.785l0.896-3.685c2.219-0.913,4.36-1.683,6.381-2.331c2.03-0.66,3.949-0.984,5.764-0.984
			c3.269,0,5.783,0.801,7.544,2.382c1.766,1.564,2.66,3.612,2.66,6.145c0,0.525-0.063,1.438-0.175,2.745
			c-0.13,1.334-0.354,2.529-0.68,3.618l-3.38,11.974c-0.278,0.961-0.521,2.07-0.764,3.29c-0.214,1.222-0.316,2.159-0.316,2.792
			c0,1.591,0.363,2.683,1.062,3.248c0.717,0.589,1.938,0.875,3.705,0.875c0.83,0,1.739-0.154,2.794-0.435
			c1.024-0.279,1.788-0.55,2.264-0.763L321.327,719.533z"/>
		<path fill="#93AF41" d="M320.74,675.724c-1.593,1.455-3.492,2.2-5.718,2.2c-2.197,0-4.116-0.745-5.708-2.2
			c-1.574-1.465-2.384-3.253-2.384-5.342c0-2.08,0.81-3.864,2.384-5.352c1.592-1.455,3.511-2.2,5.708-2.2
			c2.226,0,4.125,0.745,5.718,2.2c1.563,1.487,2.353,3.271,2.353,5.352C323.093,672.471,322.304,674.259,320.74,675.724
			L320.74,675.724z"/>
	</g>
</g>
</svg>
