<?xml version="1.0" encoding="utf-8"?>
<!-- Generator: Adobe Illustrator 16.0.0, SVG Export Plug-In . SVG Version: 6.00 Build 0)  -->
<!DOCTYPE svg PUBLIC "-//W3C//DTD SVG 1.0//EN" "http://www.w3.org/TR/2001/REC-SVG-20010904/DTD/svg10.dtd">
<svg version="1.0" id="Camada_1" xmlns="http://www.w3.org/2000/svg" xmlns:xlink="http://www.w3.org/1999/xlink" x="0px" y="0px"
	 width="120px" height="120px" viewBox="0 0 120 120" enable-background="new 0 0 120 120" xml:space="preserve">
<g>
	<circle fill="#93AF41" cx="60" cy="60" r="57.5"/>
	<linearGradient id="SVGID_1_" gradientUnits="userSpaceOnUse" x1="60" y1="9.5498" x2="60" y2="90.9662">
		<stop  offset="0" style="stop-color:#FFFFFF"/>
		<stop  offset="1" style="stop-color:#EFEEED"/>
	</linearGradient>
	<circle fill="url(#SVGID_1_)" cx="60" cy="60" r="50"/>
	<path id="heart_5_" fill="#93AF41" d="M59.998,88.5l-1.095-0.886C34.975,68.12,28.496,61.26,28.496,50.116
		c0-9.164,7.454-16.616,16.614-16.616c7.658,0,11.987,4.348,14.888,7.618c2.897-3.271,7.229-7.618,14.886-7.618
		c9.168,0,16.62,7.452,16.62,16.616c0,11.144-6.484,18.004-30.414,37.498L59.998,88.5z"/>
</g>
<g>
	<circle fill="#93AF41" cx="310.498" cy="690.847" r="57.5"/>
	<linearGradient id="SVGID_2_" gradientUnits="userSpaceOnUse" x1="310.498" y1="640.3965" x2="310.498" y2="721.8125">
		<stop  offset="0" style="stop-color:#FFFFFF"/>
		<stop  offset="1" style="stop-color:#EFEEED"/>
	</linearGradient>
	<circle fill="url(#SVGID_2_)" cx="310.498" cy="690.847" r="50"/>
	<g>
		<path fill="#93AF41" d="M321.327,719.533c-2.729,1.067-4.88,1.875-6.501,2.439c-1.609,0.568-3.492,0.857-5.625,0.857
			c-3.295,0-5.866-0.813-7.681-2.428c-1.826-1.589-2.72-3.637-2.72-6.103c0-0.962,0.065-1.937,0.195-2.942
			c0.128-1.006,0.354-2.117,0.652-3.383l3.408-12.014c0.298-1.157,0.559-2.246,0.755-3.249c0.203-1.053,0.307-1.98,0.307-2.837
			c0-1.521-0.326-2.598-0.96-3.207c-0.633-0.605-1.824-0.894-3.612-0.894c-0.876,0-1.788,0.134-2.71,0.397
			c-0.912,0.282-1.694,0.546-2.351,0.785l0.896-3.685c2.219-0.913,4.36-1.683,6.381-2.331c2.03-0.66,3.949-0.984,5.764-0.984
			c3.269,0,5.783,0.801,7.544,2.382c1.766,1.564,2.66,3.612,2.66,6.145c0,0.525-0.063,1.438-0.175,2.745
			c-0.13,1.334-0.354,2.529-0.68,3.618l-3.38,11.974c-0.278,0.961-0.521,2.07-0.764,3.29c-0.214,1.222-0.316,2.159-0.316,2.792
			c0,1.591,0.363,2.683,1.062,3.248c0.717,0.589,1.938,0.875,3.705,0.875c0.83,0,1.739-0.154,2.794-0.435
			c1.024-0.279,1.788-0.55,2.264-0.763L321.327,719.533z"/>
		<path fill="#93AF41" d="M320.74,675.724c-1.593,1.455-3.492,2.2-5.718,2.2c-2.197,0-4.116-0.745-5.708-2.2
			c-1.574-1.465-2.384-3.253-2.384-5.342c0-2.08,0.81-3.864,2.384-5.352c1.592-1.455,3.511-2.2,5.708-2.2
			c2.226,0,4.125,0.745,5.718,2.2c1.563,1.487,2.353,3.271,2.353,5.352C323.093,672.471,322.304,674.259,320.74,675.724
			L320.74,675.724z"/>
	</g>
</g>
</svg>
