<?xml version="1.0" encoding="utf-8"?>
<!-- Generator: Adobe Illustrator 16.0.0, SVG Export Plug-In . SVG Version: 6.00 Build 0)  -->
<!DOCTYPE svg PUBLIC "-//W3C//DTD SVG 1.0//EN" "http://www.w3.org/TR/2001/REC-SVG-20010904/DTD/svg10.dtd">
<svg version="1.0" id="Camada_1" xmlns="http://www.w3.org/2000/svg" xmlns:xlink="http://www.w3.org/1999/xlink" x="0px" y="0px"
	 width="120px" height="120px" viewBox="0 0 120 120" enable-background="new 0 0 120 120" xml:space="preserve">
<g>
	<circle fill="#93AF41" cx="60" cy="60" r="57.5"/>
	<linearGradient id="SVGID_1_" gradientUnits="userSpaceOnUse" x1="60" y1="9.5498" x2="60" y2="90.9662">
		<stop  offset="0" style="stop-color:#FFFFFF"/>
		<stop  offset="1" style="stop-color:#EFEEED"/>
	</linearGradient>
	<circle fill="url(#SVGID_1_)" cx="60" cy="60" r="50"/>
	<g>
		<path fill="#93AF41" d="M71.538,87.703c-2.73,1.067-4.881,1.875-6.502,2.439C63.427,90.711,61.545,91,59.412,91
			c-3.295,0-5.866-0.813-7.681-2.428c-1.826-1.589-2.72-3.637-2.72-6.103c0-0.962,0.065-1.937,0.195-2.942
			c0.128-1.006,0.354-2.117,0.652-3.383l3.408-12.014c0.298-1.157,0.559-2.246,0.755-3.249c0.203-1.053,0.307-1.98,0.307-2.837
			c0-1.521-0.326-2.598-0.96-3.207c-0.633-0.605-1.824-0.894-3.612-0.894c-0.876,0-1.788,0.134-2.71,0.397
			c-0.912,0.282-1.694,0.546-2.351,0.785l0.896-3.685c2.219-0.913,4.36-1.683,6.381-2.331c2.03-0.66,3.949-0.984,5.764-0.984
			c3.269,0,5.782,0.801,7.544,2.382c1.766,1.564,2.66,3.612,2.66,6.145c0,0.525-0.063,1.438-0.176,2.745
			c-0.129,1.334-0.354,2.529-0.68,3.618L63.706,74.99c-0.279,0.961-0.521,2.07-0.764,3.29c-0.215,1.222-0.316,2.159-0.316,2.792
			c0,1.591,0.363,2.683,1.061,3.248c0.717,0.589,1.938,0.875,3.705,0.875c0.83,0,1.74-0.154,2.795-0.435
			c1.023-0.279,1.787-0.55,2.264-0.763L71.538,87.703z"/>
		<path fill="#93AF41" d="M70.95,43.894c-1.592,1.455-3.492,2.2-5.717,2.2c-2.197,0-4.116-0.745-5.708-2.2
			c-1.574-1.465-2.384-3.253-2.384-5.342c0-2.08,0.81-3.864,2.384-5.352c1.592-1.455,3.511-2.2,5.708-2.2
			c2.225,0,4.125,0.745,5.717,2.2c1.564,1.487,2.354,3.271,2.354,5.352C73.304,40.641,72.515,42.429,70.95,43.894L70.95,43.894z"/>
	</g>
</g>
</svg>
