<?xml version="1.0" encoding="utf-8"?>
<!-- Generator: Adobe Illustrator 16.0.0, SVG Export Plug-In . SVG Version: 6.00 Build 0)  -->
<!DOCTYPE svg PUBLIC "-//W3C//DTD SVG 1.0//EN" "http://www.w3.org/TR/2001/REC-SVG-20010904/DTD/svg10.dtd">
<svg version="1.0" id="Camada_1" xmlns="http://www.w3.org/2000/svg" xmlns:xlink="http://www.w3.org/1999/xlink" x="0px" y="0px"
	 width="255px" height="65px" viewBox="0 0 255 65" enable-background="new 0 0 255 65" xml:space="preserve">
<g>
	<g>
		<path fill="#343434" d="M135.149,17.85l1.858-6.365c-13.298,0-21.678-0.021-25.612-0.064c-3.698,0.126-6.585,1.221-8.581,3.254
			l1.904,5.514c1.751-1.638,3.69-2.467,5.772-2.467l5.379,0.066l-10.958,41.895h9.291L125.16,17.85H135.149z"/>
		<path fill="#343434" d="M139.801,36.988c0.964,0,1.998,0.301,3.079,0.893l1.937-8.105c-0.479-0.253-1.074-0.38-1.774-0.38
			c-1.693,0-3.607,0.666-5.693,1.982l-0.317,0.201l0.567-2.118h-8.644L120.8,59.682h8.641l4.836-17.863
			C135.596,38.607,137.453,36.988,139.801,36.988z"/>
		<path fill="#343434" d="M163.27,32.174l-0.18-0.254c-1.393-1.932-3.293-2.912-5.651-2.912c-2.418,0-4.871,1.064-7.295,3.164
			c-2.437,2.109-4.387,4.865-5.797,8.189c-1.282,2.985-1.935,6.012-1.935,8.994c0,5.342,1.737,8.799,5.163,10.273
			c0.841,0.335,1.758,0.504,2.729,0.504c2.16,0,4.376-0.859,6.589-2.553l0.117-0.091l0.091,0.117
			c1.434,1.892,3.226,2.851,5.33,2.851c1.849,0,3.901-0.742,6.098-2.207l1.526-5.363c-0.601,0.201-1.16,0.302-1.659,0.302
			c-1.356,0-1.64-0.783-1.64-1.441c0-0.272,0.047-0.569,0.135-0.88l5.593-21.536h-8.449L163.27,32.174z M159.649,45.468
			c-0.777,2.154-1.792,3.954-3.009,5.344c-1.233,1.404-2.384,2.118-3.418,2.118c-1.604,0-2.417-1.506-2.417-4.479
			c0-1.821,0.373-3.731,1.112-5.678c0.78-2.118,1.783-3.855,2.979-5.155c1.211-1.318,2.371-1.986,3.447-1.986
			c1.648,0,2.483,1.441,2.483,4.285C160.828,41.651,160.431,43.518,159.649,45.468z"/>
		<g>
			<polygon fill="#343434" points="180.117,29.331 172.155,59.747 180.797,59.747 188.759,29.331 			"/>
			<path fill="#343434" d="M192.045,20.132c0-1.036-0.488-1.874-1.492-2.563c-0.948-0.65-2.104-0.979-3.432-0.979
				c-0.079,0-0.159,0-0.241,0.003c-1.429,0.042-2.666,0.456-3.674,1.229c-0.994,0.765-1.5,1.673-1.5,2.696
				c0,1.036,0.49,1.872,1.493,2.562c1.007,0.69,2.238,1.02,3.674,0.975c1.431-0.041,2.666-0.455,3.674-1.23
				C191.54,22.063,192.045,21.156,192.045,20.132z"/>
		</g>
		<path fill="#343434" d="M243.858,14.072l-4.92,18.57l-0.181-0.275c-1.394-2.101-3.315-3.165-5.716-3.165
			c-2.372,0-4.794,1.043-7.196,3.099c-2.414,2.069-4.377,4.826-5.828,8.189c-1.24,2.939-1.87,5.924-1.87,8.865
			c0,5.298,1.693,8.713,5.033,10.146c0.843,0.333,1.739,0.506,2.666,0.506c2.032,0,4.142-0.775,6.269-2.303l0.347-0.251
			l-0.647,2.228h8.702L252.5,14.072H243.858z M235.387,45.53c-0.779,2.115-1.793,3.872-3.009,5.218
			c-1.236,1.361-2.429,2.053-3.55,2.053c-1.731,0-2.611-1.572-2.611-4.673c0-1.823,0.375-3.755,1.111-5.741
			c1.66-4.398,3.714-6.627,6.104-6.627c1.992,0,3.002,1.596,3.002,4.739C236.435,42.061,236.081,43.754,235.387,45.53z"/>
		<path fill="#343434" d="M212.493,29.641c-0.571-0.161-1.278-0.245-2.079-0.245c-2.256,0-4.607,0.71-6.992,2.112l-0.306,0.18
			l0.561-2.228h-8.646l-7.963,30.222h8.642l4.912-18.538c0.351-0.703,0.863-1.349,1.523-1.921c0.654-0.565,1.312-1.111,1.953-1.62
			c0.929-0.751,1.813-1.131,2.621-1.131c0.421,0,0.805,0.142,1.133,0.423c0.716,0.398,1.089,1.008,1.089,1.793
			c0,0.232-0.047,0.471-0.14,0.703l-5.373,20.465h8.653c0-0.011,0-0.018,0-0.027l0.005-0.037l5.447-20.494
			c0.126-0.543,0.19-1.16,0.19-1.84C217.724,33.834,215.963,31.203,212.493,29.641z"/>
	</g>
	<path fill="#211915" d="M9.792,57.061c0,0-3.381,4.636-0.423,5.058c0,0,45.819,3.851,85.089-12.899L30.501,47.37L9.792,57.061z"/>
	<path fill="#FFFFFF" d="M13.853,34.918c0,0,25.619,1.702,33.73-9.581c0,0,9.723-12.601,3.375-21.151
		c-15.514-2.961-26.38,6.829-26.38,6.829c-8.529,6.728-13.642,13.784-16.695,19.583C8.767,32.689,10.506,35.036,13.853,34.918z"/>
	<path fill="#211915" d="M38.826,22.299c-1.301,1.602-3.098,2.3-4.016,1.561c-0.916-0.739-0.605-2.639,0.696-4.24
		c1.302-1.602,3.1-2.301,4.017-1.561C40.44,18.797,40.127,20.697,38.826,22.299z"/>
	<path fill="#FFFFFF" d="M11.193,44.425c0.006,0.009,0.073,0.126,0.249,0.37c0.175,0.236,0.449,0.58,0.85,0.963
		c0.398,0.383,0.919,0.81,1.577,1.201c0.656,0.394,1.446,0.756,2.36,1c0.913,0.244,1.937,0.387,3.033,0.42
		c1.099,0.019,2.268-0.096,3.466-0.297c1.193-0.238,2.425-0.54,3.644-0.973c0.305-0.105,0.611-0.212,0.918-0.316
		c0.305-0.115,0.607-0.241,0.911-0.36c0.306-0.123,0.609-0.246,0.915-0.367l0.9-0.412l0.9-0.411
		c0.295-0.145,0.587-0.301,0.881-0.449c0.584-0.305,1.177-0.588,1.74-0.916c0.568-0.321,1.135-0.633,1.69-0.953
		c0.546-0.334,1.087-0.663,1.617-0.986c0.536-0.318,1.043-0.662,1.546-0.988c0.501-0.33,0.992-0.651,1.471-0.965
		c0.937-0.654,1.824-1.275,2.643-1.846c0.804-0.593,1.543-1.135,2.198-1.617c0.653-0.484,1.203-0.932,1.667-1.283
		c0.927-0.713,1.456-1.117,1.456-1.117l0.006-0.003c0.079-0.063,0.199-0.05,0.262,0.034c0.061,0.077,0.047,0.188-0.025,0.254
		c0,0-0.507,0.438-1.391,1.206c-0.447,0.381-0.979,0.851-1.612,1.366c-0.634,0.514-1.35,1.095-2.132,1.727
		c-0.789,0.623-1.664,1.271-2.585,1.968c-0.471,0.331-0.954,0.675-1.45,1.022c-0.497,0.349-0.997,0.715-1.532,1.049
		c-0.529,0.345-1.065,0.691-1.612,1.045c-0.554,0.341-1.123,0.672-1.69,1.014c-0.563,0.35-1.162,0.652-1.754,0.974
		c-0.297,0.157-0.59,0.321-0.892,0.475l-0.915,0.438l-0.915,0.44c-0.313,0.131-0.625,0.263-0.937,0.396
		c-0.313,0.128-0.621,0.266-0.934,0.389c-0.317,0.113-0.635,0.227-0.949,0.341c-1.261,0.46-2.549,0.792-3.809,1.058
		c-0.64,0.093-1.261,0.229-1.888,0.263c-0.312,0.022-0.619,0.067-0.928,0.069c-0.306,0.002-0.609,0.004-0.909,0.006
		c-0.299-0.002-0.596-0.036-0.887-0.053c-0.293-0.014-0.578-0.057-0.858-0.104c-0.563-0.075-1.1-0.228-1.607-0.372
		c-0.251-0.09-0.497-0.174-0.737-0.258c-0.232-0.107-0.458-0.21-0.678-0.313c-0.43-0.224-0.833-0.448-1.181-0.703
		c-0.707-0.5-1.246-1.032-1.635-1.508c-0.394-0.476-0.645-0.893-0.795-1.188c-0.078-0.147-0.127-0.261-0.165-0.349
		c-0.033-0.081-0.051-0.122-0.051-0.122l-0.003-0.007c-0.062-0.155,0.012-0.333,0.168-0.396
		C10.955,44.217,11.124,44.284,11.193,44.425z"/>
	<path fill="#FFFFFF" d="M88.735,34.254c-2.307-1.773-5.69-4.23-9.6-6.622c0.427,2.129,0.648,5.086-0.386,7.925
		c2.887,1.503,6.288,3.449,10.163,5.945C89.574,38.542,89.061,35.612,88.735,34.254z"/>
	<path fill="#FFFFFF" d="M94.903,40.04c-0.044-0.062-0.089-0.124-0.133-0.187c-0.229-0.313-0.387-0.482-0.387-0.482
		c-0.182-0.229-0.362-0.453-0.543-0.679c-0.542-0.612-1.167-1.237-1.901-1.864c0,0-0.627-0.538-1.725-1.414
		c0.287,1.748,0.456,4.265-0.212,6.796c1.994,1.313,4.105,2.763,6.332,4.375c0.007-0.032,0.009-0.051,0.009-0.051
		C97.16,43.254,95.676,41.153,94.903,40.04z"/>
	<path fill="#FFFFFF" d="M77.675,26.754c-4.177-2.449-8.843-4.726-13.382-5.986c0,0-5.007-1.737-10.447,5.207l6.094,8.25
		c0,0,3.482-4.342,7.402-3.474c0,0,3.637,0.875,10.313,4.244C78.698,31.938,78.178,28.68,77.675,26.754z"/>
	<g>
		<path fill="#343434" d="M9.639,57.059c0,0-3.382,4.637-0.423,5.06c0,0,45.817,3.85,85.088-12.901l-63.958-1.85L9.639,57.059z"/>
		<linearGradient id="SVGID_1_" gradientUnits="userSpaceOnUse" x1="2.4995" y1="30.5923" x2="96.4116" y2="30.5923">
			<stop  offset="0.2541" style="stop-color:#94B041"/>
			<stop  offset="0.65" style="stop-color:#7BA841"/>
		</linearGradient>
		<path fill="url(#SVGID_1_)" d="M23.872,9.892c0,0,15.585-14.052,36.082-3.408c0,0,12.171,4.896,34.373,32.782
			c0,0,2.777,2.979,1.922,7.024c0,0-0.426,3.407-6.19,4.685c0,0-48.677,10.433-76.434,7.024c0,0-13.022-0.64-10.887-15.754
			C2.736,42.246,4.444,25.218,23.872,9.892z"/>
		<path fill="#FFFFFF" d="M13.698,34.916c0,0,25.618,1.701,33.732-9.58c0,0,9.72-12.601,3.373-21.152
			c-15.516-2.961-26.38,6.83-26.38,6.83c-8.528,6.726-13.643,13.783-16.696,19.582C8.613,32.688,10.351,35.033,13.698,34.916z"/>
		<path fill="#343434" d="M38.671,22.298c-1.301,1.601-3.099,2.3-4.014,1.56c-0.917-0.74-0.605-2.638,0.695-4.24
			c1.303-1.601,3.099-2.301,4.016-1.56C40.286,18.796,39.973,20.696,38.671,22.298z"/>
		<path fill="#343434" d="M21.581,22.298c-1.3,1.601-3.097,2.3-4.014,1.56c-0.917-0.74-0.605-2.638,0.696-4.24
			c1.302-1.601,3.1-2.301,4.017-1.56C23.195,18.796,22.882,20.696,21.581,22.298z"/>
		<path fill="#FFFFFF" d="M11.04,44.422c0.004,0.01,0.07,0.129,0.249,0.369c0.174,0.238,0.448,0.581,0.846,0.965
			c0.401,0.381,0.923,0.811,1.58,1.201c0.655,0.395,1.446,0.754,2.359,1c0.913,0.244,1.938,0.387,3.034,0.418
			c1.099,0.021,2.267-0.094,3.467-0.294c1.193-0.241,2.422-0.542,3.642-0.975c0.305-0.104,0.611-0.209,0.918-0.316
			c0.306-0.112,0.607-0.24,0.912-0.36c0.302-0.121,0.608-0.246,0.914-0.367l0.901-0.41l0.899-0.412
			c0.298-0.145,0.587-0.302,0.881-0.451c0.584-0.303,1.176-0.586,1.74-0.914c0.568-0.322,1.137-0.633,1.69-0.953
			c0.546-0.334,1.087-0.664,1.619-0.988c0.536-0.314,1.042-0.66,1.545-0.986c0.503-0.328,0.994-0.652,1.471-0.966
			c0.938-0.654,1.824-1.274,2.643-1.847c0.805-0.592,1.543-1.135,2.196-1.617c0.655-0.48,1.205-0.931,1.671-1.283
			c0.927-0.709,1.455-1.116,1.455-1.116l0.003-0.003c0.083-0.062,0.2-0.047,0.265,0.033c0.06,0.079,0.048,0.191-0.026,0.255
			c0,0-0.505,0.439-1.391,1.206c-0.447,0.381-0.979,0.852-1.612,1.367c-0.634,0.515-1.349,1.094-2.13,1.725
			c-0.791,0.623-1.666,1.273-2.587,1.967c-0.47,0.333-0.954,0.676-1.449,1.026c-0.498,0.349-0.995,0.713-1.532,1.049
			c-0.529,0.341-1.067,0.69-1.611,1.044c-0.555,0.34-1.123,0.671-1.691,1.014c-0.564,0.351-1.164,0.652-1.752,0.973
			c-0.299,0.158-0.592,0.322-0.894,0.475l-0.915,0.439l-0.915,0.438c-0.312,0.133-0.625,0.266-0.935,0.396
			c-0.313,0.129-0.622,0.268-0.936,0.391c-0.317,0.113-0.635,0.229-0.95,0.34c-1.259,0.46-2.546,0.791-3.807,1.058
			c-0.642,0.093-1.261,0.229-1.887,0.263c-0.314,0.023-0.619,0.067-0.928,0.07c-0.306,0.002-0.611,0.004-0.91,0.008
			c-0.301-0.002-0.596-0.037-0.887-0.055c-0.293-0.015-0.58-0.057-0.86-0.105c-0.563-0.076-1.099-0.228-1.606-0.372
			c-0.251-0.088-0.497-0.175-0.735-0.259c-0.232-0.105-0.458-0.209-0.679-0.31c-0.429-0.226-0.832-0.448-1.183-0.705
			c-0.705-0.499-1.242-1.032-1.633-1.507c-0.394-0.475-0.643-0.894-0.793-1.188c-0.078-0.149-0.129-0.261-0.167-0.347
			c-0.032-0.084-0.05-0.125-0.05-0.125l-0.001-0.006c-0.064-0.155,0.012-0.332,0.167-0.396C10.8,44.217,10.969,44.281,11.04,44.422z
			"/>
		<path fill="#FFFFFF" d="M87.615,34.254c-2.308-1.773-5.688-4.231-9.601-6.624c0.428,2.13,0.648,5.086-0.386,7.925
			c2.888,1.502,6.29,3.447,10.161,5.947C88.454,38.539,87.938,35.609,87.615,34.254z"/>
		<path fill="#FFFFFF" d="M93.782,40.039c-0.042-0.063-0.087-0.126-0.133-0.188c-0.227-0.313-0.386-0.483-0.386-0.483
			c-0.183-0.229-0.364-0.451-0.544-0.679c-0.54-0.61-1.168-1.236-1.903-1.863c0,0-0.624-0.537-1.722-1.415
			c0.287,1.749,0.454,4.266-0.216,6.796c1.996,1.313,4.109,2.764,6.335,4.375c0.006-0.032,0.009-0.051,0.009-0.051
			C96.04,43.251,94.553,41.15,93.782,40.039z"/>
		<path fill="#FFFFFF" d="M76.554,26.753c-4.176-2.449-8.84-4.727-13.381-5.987c0,0-5.005-1.736-10.448,5.209l6.095,8.249
			c0,0,3.482-4.344,7.4-3.475c0,0,3.638,0.874,10.312,4.243C77.578,31.936,77.057,28.678,76.554,26.753z"/>
	</g>
</g>
</svg>
